<svg xmlns="http://www.w3.org/2000/svg" width="19" height="14" viewBox="0 0 19 14" class="a1O">
<path d="M16.5892 2.41096L17.7333 1.09589C18.0645 0.739726 18.1548 0.465753 18.1849 0.328767C17.2817 0.821918 16.4387 0.986301 15.8968 0.986301H15.686L15.5656 0.876712C14.843 0.30137 13.9398 0 12.9763 0C10.8688 0 9.2129 1.58904 9.2129 3.42466C9.2129 3.53425 9.2129 3.69863 9.24301 3.80822L9.33333 4.35616L8.70107 4.32877C4.84731 4.21918 1.68602 1.20548 1.17419 0.684932C0.331183 2.05479 0.812903 3.36986 1.32473 4.19178L2.34839 5.72603L0.722581 4.90411C0.752688 6.05479 1.23441 6.9589 2.16774 7.61644L2.98064 8.16438L2.16774 8.46575C2.67957 9.86301 3.82366 10.4384 4.66667 10.6575L5.78064 10.9315L4.72688 11.589C3.04086 12.6849 0.933333 12.6027 0 12.5205C1.89677 13.726 4.15484 14 5.72043 14C6.89462 14 7.76774 13.8904 7.97849 13.8082C16.4086 12 16.8 5.15068 16.8 3.78082V3.58904L16.9806 3.47945C18.0043 2.60274 18.4258 2.13699 18.6667 1.86301C18.5763 1.89041 18.4559 1.94521 18.3355 1.9726L16.5892 2.41096Z"/>
</svg>