<svg xmlns="http://www.w3.org/2000/svg" width="19" height="14" viewBox="0 0 19 14" class="a1O">
<path d="M18.2753 2.19355C18.0645 1.32258 17.4323 0.645161 16.6194 0.419355C15.1742 7.69092e-08 9.33333 0 9.33333 0C9.33333 0 3.49247 7.69092e-08 2.04731 0.419355C1.23441 0.645161 0.60215 1.32258 0.391398 2.19355C0 3.77419 0 7 0 7C0 7 0 10.2581 0.391398 11.8065C0.60215 12.6774 1.23441 13.3548 2.04731 13.5806C3.49247 14 9.33333 14 9.33333 14C9.33333 14 15.1742 14 16.6194 13.5806C17.4323 13.3548 18.0645 12.6774 18.2753 11.8065C18.6667 10.2581 18.6667 7 18.6667 7C18.6667 7 18.6667 3.77419 18.2753 2.19355ZM7.46667 10V4L12.314 7L7.46667 10Z"/>
</svg>