<svg xmlns="http://www.w3.org/2000/svg" width="7" height="14" viewBox="0 0 7 14" class="a1O">
<path d="M6.50914 5.6H5.42429H5.03684V5.14839V3.74839V3.29677H5.42429H6.23793C6.45103 3.29677 6.62538 3.11613 6.62538 2.84516V0.451613C6.62538 0.203226 6.4704 0 6.23793 0H4.82374C3.29332 0 2.22783 1.26452 2.22783 3.13871V5.10323V5.55484H1.84038H0.523056C0.251842 5.55484 0 5.80323 0 6.16452V7.79032C0 8.10645 0.213097 8.4 0.523056 8.4H1.80164H2.18909V8.85161V13.3903C2.18909 13.7065 2.40218 14 2.71214 14H4.53315C4.64939 14 4.74625 13.9323 4.82374 13.8419C4.90123 13.7516 4.95935 13.5935 4.95935 13.4581V8.87419V8.42258H5.36617H6.23793C6.48977 8.42258 6.6835 8.24194 6.72224 7.97097V7.94839V7.92581L6.99346 6.36774C7.01283 6.20968 6.99345 6.02903 6.87722 5.84839C6.83848 5.73548 6.66412 5.62258 6.50914 5.6Z"/>
</svg>